<?xml version="1.0" encoding="UTF-8"?>
<svg version="1.1" xmlns="http://www.w3.org/2000/svg" width="1158" height="1156">
<path d="M0 0 C1.20446777 0.13921875 2.40893555 0.2784375 3.64990234 0.421875 C70.48743626 8.16180655 135.03747593 28.76391481 195 59 C196.04542969 59.52480957 197.09085938 60.04961914 198.16796875 60.59033203 C228.4945245 75.88466256 257.0230611 94.3846902 284 115 C284.63679687 115.4851709 285.27359375 115.9703418 285.9296875 116.47021484 C297.56147277 125.36889867 308.67264379 134.88018075 319.50170898 144.73706055 C321.05529291 146.14428906 322.61606644 147.54367296 324.18774414 148.93066406 C330.85960985 154.83618127 337.19242744 161.03857137 343.47827148 167.34790039 C345.19207233 169.0670867 346.91119082 170.78082583 348.63085938 172.49414062 C354.30242731 178.16233111 359.80155358 183.88935067 365 190 C366.4132355 191.5448126 367.82940409 193.08695325 369.25 194.625 C373.7992233 199.66686339 377.9690272 204.95182698 382.125 210.31640625 C384.01042835 212.74704191 385.92479527 215.14838467 387.875 217.52734375 C396.14797295 227.63721823 403.62627163 238.22161746 411 249 C411.86065064 250.24350789 412.72132518 251.48699923 413.58203125 252.73046875 C466.7628547 330.30356322 498.602418 421.88463768 508.25 515.1875 C508.33326538 515.98926666 508.41653076 516.79103333 508.50231934 517.61709595 C510.74061863 539.48777831 511.21395438 561.26016457 511.24023438 583.22973633 C511.24460311 586.35225203 511.25846209 589.47448896 511.28125 592.59692383 C511.45995127 617.63268598 510.45805238 642.25690245 505.375 666.875 C505.12266602 668.13143311 504.87033203 669.38786621 504.61035156 670.68237305 C488.73102318 748.77551482 461.97469392 821.59964729 411 901 C410.57960449 901.61198242 410.15920898 902.22396484 409.72607422 902.85449219 C399.40774962 917.83587083 388.38548131 932.2392416 376.52734375 946.03515625 C374.04904625 948.94246352 371.64475204 951.89872301 369.25 954.875 C366.26099762 958.55009011 363.17515789 961.95813943 359.76098633 965.23803711 C358.09626907 966.90367755 356.58418633 968.62262462 355.06640625 970.421875 C350.36911996 975.82536629 345.30003578 980.84973986 340.23022461 985.90014648 C338.56573723 987.5592732 336.90666553 989.22368051 335.24804688 990.88867188 C329.67094487 996.46963029 324.02462461 1001.89943319 318 1007 C316.83163019 1008.02149274 315.66494666 1009.04491759 314.5 1010.0703125 C278.57744793 1041.48471673 239.2353711 1067.78640217 197 1090 C196.1553418 1090.44762695 195.31068359 1090.89525391 194.44042969 1091.35644531 C120.44506988 1130.32979848 33.41726881 1152.89958203 -50.234375 1153.203125 C-52.19178368 1153.21364647 -52.19178368 1153.21364647 -54.18873596 1153.22438049 C-58.37582904 1153.24376266 -62.56286657 1153.24881486 -66.75 1153.25 C-67.82173777 1153.25066278 -67.82173777 1153.25066278 -68.9151268 1153.25133896 C-91.08464344 1153.25852403 -112.98290851 1152.81355427 -135 1150 C-136.42651305 1149.82598664 -137.85311081 1149.65266648 -139.27978516 1149.47998047 C-218.29017382 1139.80689227 -295.73317622 1113.69661364 -399 1050 C-400.46870326 1048.96477744 -401.93745537 1047.92962417 -403.40625 1046.89453125 C-413.00924738 1040.08353162 -422.22905384 1032.90987172 -431.29443359 1025.40136719 C-433.60566055 1023.50236308 -435.95877264 1021.65841531 -438.3125 1019.8125 C-442.77279599 1016.2592558 -446.97792105 1012.46041453 -451.1640625 1008.58984375 C-453.36505914 1006.57984269 -455.58640031 1004.61073443 -457.8359375 1002.65625 C-461.9751534 999.04626451 -466.00059994 995.32621333 -470 991.5625 C-470.69988037 990.90435303 -471.39976074 990.24620605 -472.12084961 989.56811523 C-478.66213102 983.40053417 -485.03504313 977.21161452 -490.89453125 970.38671875 C-493.10570233 967.88017787 -495.3792115 965.44298683 -497.66723633 963.00683594 C-503.73283936 956.54495262 -509.46153625 949.92307969 -515 943 C-515.99294221 941.79664861 -516.98786509 940.59492985 -517.984375 939.39453125 C-536.5964558 916.90575774 -553.56453714 892.38750967 -568 867 C-568.50950195 866.11199707 -569.01900391 865.22399414 -569.54394531 864.30908203 C-587.80625223 832.42028457 -602.7192684 799.64768147 -615 765 C-615.51723633 763.56503174 -615.51723633 763.56503174 -616.04492188 762.10107422 C-644.06473739 684.0088106 -651.96884809 600.21648899 -590.68969727 325.72314453 C-570.23480989 282.68576895 -544.49637599 242.6054571 -514 206 C-513.5246582 205.42556152 -513.04931641 204.85112305 -512.55957031 204.25927734 C-506.12140151 196.48526735 -499.41368556 189.00572128 -492.52050781 181.63378906 C-490.99135927 179.99071552 -489.474408 178.33720535 -487.9609375 176.6796875 C-479.76155139 167.70727305 -471.47585497 158.8310205 -462.21484375 150.93359375 C-459.88697751 148.90132957 -457.62901308 146.80672496 -455.37133789 144.69726562 C-450.05492499 139.73312192 -444.66178543 134.94794568 -438.984375 130.39453125 C-436.76972458 128.61759315 -434.57507619 126.82504198 -432.390625 125.01171875 C-366.13063913 70.18391354 -285.53688569 31.19899551 -138.05010986 0.25714111 C-136.08840835 0.01108888 -134.12790707 -0.2444764 -132.16748047 -0.50048828 C-89.18211335 -5.89107964 -42.94585625 -5.41859342 0 0 Z " fill="#575759" transform="translate(647,3)"/>
<path d="M0 0 C0.75393791 -0.00115059 1.50787582 -0.00230118 2.28466034 -0.00348663 C45.1576201 -0.04886297 86.77123733 4.18206691 128.5 14.3125 C129.7478125 14.60511719 130.995625 14.89773437 132.28125 15.19921875 C175.60035162 25.63278286 216.72388446 41.37841838 256.5 61.3125 C257.54446289 61.83344238 258.58892578 62.35438477 259.66503906 62.89111328 C273.76468618 69.95911234 287.26750134 77.73339471 300.5 86.3125 C301.47114746 86.9420459 302.44229492 87.5715918 303.44287109 88.22021484 C323.35110572 101.19048891 342.35530606 114.97210879 360.5 130.3125 C361.43368408 131.09753906 361.43368408 131.09753906 362.38623047 131.8984375 C375.66342716 143.07326366 388.23941749 154.88012864 400.48632812 167.16845703 C402.39078505 169.07832994 404.30060819 170.98272149 406.2109375 172.88671875 C412.1866485 178.85888924 418.06019788 184.84084895 423.5 191.3125 C424.44851645 192.39628874 425.39899732 193.4783618 426.3515625 194.55859375 C433.5729171 202.83842792 440.31546682 211.41977654 446.91064453 220.20410156 C448.4271642 222.21587789 449.95883495 224.2149846 451.49609375 226.2109375 C508.39775317 300.44075195 543.6157431 390.17843226 559.6875 500.75 C559.77471313 501.55045746 559.86192627 502.35091492 559.95178223 503.17562866 C561.21863923 514.91250533 562.08178303 526.49907229 561.5 538.3125 C556.84043417 537.62035533 552.70557132 535.87423137 548.3984375 534.05078125 C547.59007446 533.71259369 546.78171143 533.37440613 545.94885254 533.02597046 C543.2555001 531.89717164 540.56523554 530.76120519 537.875 529.625 C535.96637686 528.82316105 534.05768396 528.02148815 532.14892578 527.2199707 C518.27268335 521.38087292 504.45499411 515.40979269 490.64422607 509.4178772 C463.7758026 497.76492812 436.86470686 486.46869346 409.07080078 477.18017578 C406.57907092 476.33918738 404.09958353 475.46898541 401.62109375 474.58984375 C377.55139895 466.15477479 352.53688846 460.07075808 327.5 455.3125 C327.23960937 454.38179688 326.97921875 453.45109375 326.7109375 452.4921875 C317.38129169 419.97682506 303.344676 390.51925476 280.5 365.3125 C279.585971 364.26803588 278.67322623 363.22244663 277.76171875 362.17578125 C271.87676749 355.49458172 265.52978288 349.78583535 258.5 344.3125 C257.72398437 343.65894531 256.94796875 343.00539063 256.1484375 342.33203125 C248.78120461 336.15981774 240.77821057 331.15554726 232.5 326.3125 C231.42298828 325.68142334 231.42298828 325.68142334 230.32421875 325.03759766 C210.50153849 313.60786839 188.96002228 306.43785239 166.5 302.3125 C165.57098877 302.12848633 164.64197754 301.94447266 163.68481445 301.75488281 C153.54751994 299.93750733 143.45279823 299.91496717 133.1875 299.9375 C131.79212509 299.93831573 131.79212509 299.93831573 130.36856079 299.93914795 C115.74969416 299.97842022 101.74532518 300.78339795 87.5 304.3125 C86.60667969 304.52680664 85.71335937 304.74111328 84.79296875 304.96191406 C35.18894554 317.15002706 -8.97996693 348.77724266 -36.20458984 392.02001953 C-42.32675104 402.15843435 -47.64114988 412.5115221 -52.5 423.3125 C-53.09133728 423.34120178 -53.68267456 423.36990356 -54.29193115 423.3994751 C-102.33457989 425.74539485 -149.8762864 429.48522749 -197.5 436.3125 C-198.31474792 436.42895874 -199.12949585 436.54541748 -199.96893311 436.66540527 C-260.75034286 445.40582856 -320.88362536 460.14569464 -379.5 478.3125 C-380.4374707 478.60213623 -381.37494141 478.89177246 -382.34082031 479.19018555 C-407.45746511 486.95832752 -432.3960246 495.18599647 -457.1875 503.9375 C-458.25836853 504.31513489 -459.32923706 504.69276978 -460.43255615 505.08184814 C-471.0301793 508.8280314 -481.56912445 512.65507154 -491.97924805 516.89575195 C-497.77527507 519.22806905 -503.63374597 521.39108581 -509.49035645 523.56573486 C-512.80546309 524.79759812 -516.11743417 526.03783351 -519.4296875 527.27734375 C-520.07975266 527.52048309 -520.72981781 527.76362244 -521.39958191 528.01412964 C-523.3914763 528.75918385 -525.38326236 529.50452683 -527.375 530.25 C-528.40852097 530.63677917 -528.40852097 530.63677917 -529.46292114 531.03137207 C-538.54717373 534.43289093 -547.61822117 537.86399017 -556.63818359 541.43334961 C-561.40251224 543.3125 -561.40251224 543.3125 -562.5 543.3125 C-562.73448921 531.40206512 -562.21377374 519.75341044 -560.95581055 507.90844727 C-560.68810478 505.38071044 -560.43578367 502.8517854 -560.18554688 500.32226562 C-558.62537793 484.91913807 -556.38979801 469.63912971 -553.125 454.5 C-552.91077393 453.49485352 -552.69654785 452.48970703 -552.47583008 451.45410156 C-552.03481227 449.39569572 -551.59093301 447.33790065 -551.14404297 445.28076172 C-550.72985847 443.37187046 -550.31969417 441.4621001 -549.91455078 439.55126953 C-539.95764766 392.61403372 -522.95317747 348.1133367 -501.5 305.3125 C-501.05446777 304.41885742 -500.60893555 303.52521484 -500.14990234 302.60449219 C-485.539467 273.47627587 -467.45469426 246.0405631 -447.5 220.3125 C-447.04463867 219.71969238 -446.58927734 219.12688477 -446.12011719 218.51611328 C-436.63750833 206.1739367 -426.5421217 194.42501208 -415.97265625 183.00390625 C-413.29974196 180.09452561 -410.69935281 177.13216153 -408.1328125 174.12890625 C-406.00908397 171.76638527 -403.74837788 169.55687043 -401.5 167.3125 C-400.15915375 165.94747761 -398.81836729 164.58239468 -397.47949219 163.21543884 C-375.18580253 140.4754326 -375.18580253 140.4754326 -362.5 131.3125 C-360.78295859 129.96939206 -359.07412557 128.61570218 -357.375 127.25 C-356.58351563 126.61707031 -355.79203125 125.98414063 -354.9765625 125.33203125 C-352.20272665 123.07008624 -349.47940998 120.75281744 -346.75 118.4375 C-281.91583702 64.11976073 -199.24477382 29.86001371 -117.5 11.3125 C-116.79794434 11.15297852 -116.09588867 10.99345703 -115.37255859 10.82910156 C-97.96537843 6.94662895 -80.14397656 4.62533428 -62.4375 2.625 C-61.39368164 2.50576172 -60.34986328 2.38652344 -59.27441406 2.26367188 C-39.55195949 0.12918039 -19.81317694 0.02628905 0 0 Z " fill="#EE4036" transform="translate(579.5,15.6875)"/>
<path d="M0 0 C0.25056152 0.55236328 0.50112305 1.10472656 0.75927734 1.67382812 C10.82971637 23.72375085 22.8190124 42.97679177 39.58789062 60.52050781 C40.5243456 61.5016484 41.45542231 62.48795247 42.38085938 63.47949219 C54.15984533 76.0808474 67.94427119 86.58798395 83 95 C83.74169434 95.41991211 84.48338867 95.83982422 85.24755859 96.27246094 C131.88839033 122.44929102 185.87762839 128.98106322 237.50195312 114.72998047 C279.93077776 102.33140877 317.11571148 76.41800493 343.265625 40.8046875 C343.72904297 40.17530273 344.19246094 39.54591797 344.66992188 38.89746094 C346.03003208 37.00651333 346.03003208 37.00651333 347.22070312 34.95410156 C348.421875 33.0078125 348.421875 33.0078125 351 30 C356.12107778 29.54050199 360.84649883 30.40807789 365.81640625 31.546875 C366.56816132 31.71355682 367.31991638 31.88023865 368.0944519 32.05197144 C370.58604202 32.60852546 373.07441355 33.17799696 375.5625 33.75 C376.43423859 33.94873718 377.30597717 34.14747437 378.20413208 34.35223389 C449.31491981 50.60223052 518.37980301 73.26688968 586.47900391 99.27685547 C590.64635311 100.86833267 594.82158642 102.43781382 599 104 C599.62220468 112.08866089 597.35028064 119.51957443 595.25 127.25 C594.95388824 128.35397629 594.95388824 128.35397629 594.65179443 129.48025513 C581.75967326 177.36793463 562.84502011 223.31542495 538.37890625 266.47265625 C537.83435791 267.43437744 537.28980957 268.39609863 536.72875977 269.38696289 C534.08848237 273.37776772 530.73400586 276.08585195 527 279 C526.46890625 279.55558594 525.9378125 280.11117188 525.390625 280.68359375 C524 282 524 282 522 282 C522 282.66 522 283.32 522 284 C519.953125 285.875 519.953125 285.875 517.25 288 C516.36828125 288.70125 515.4865625 289.4025 514.578125 290.125 C512 292 512 292 509.734375 293.0625 C507.64026314 293.93889192 507.64026314 293.93889192 507 297 C506.34 297 505.68 297 505 297 C505 297.66 505 298.32 505 299 C501.53846154 302 501.53846154 302 499 302 C498.67 302.99 498.34 303.98 498 305 C497.195625 305.309375 496.39125 305.61875 495.5625 305.9375 C492.86250657 306.72921141 492.86250657 306.72921141 492 309 C490.6100869 311.77982621 488.81341647 311.87463341 486 313 C485.7525 313.58652344 485.505 314.17304687 485.25 314.77734375 C483.42824901 318.01664473 480.55294964 319.59894345 477.5 321.5625 C472.69392654 324.65704443 472.69392654 324.65704443 469 329 C467.00506167 330.01005994 465.00436457 331.00877718 463 332 C461.14852792 333.43008441 459.33566135 334.91139741 457.5625 336.4375 C453.49817106 339.84185672 449.64944587 342.49645223 445 345 C443.82197053 345.81719161 442.65550915 346.65126319 441.5 347.5 C438.75270507 349.50412424 435.9337501 351.24545141 432.95703125 352.8984375 C428.11319716 355.62490699 423.36267646 358.5331065 418.640625 361.46484375 C414.86670811 363.65885165 410.93504759 365.5192289 406.99609375 367.39453125 C403.4635814 369.10725561 403.4635814 369.10725561 400.4375 371.5625 C398.31788514 373.68211486 395.90107002 374.42003261 393.125 375.5 C389.15310374 377.05292185 385.64079742 378.7903713 382 381 C380.64056586 381.56020638 379.26574024 382.08528521 377.875 382.5625 C375.15917937 383.4977145 373.4589516 384.36069893 371 386 C369 386.66666667 367 387.33333333 365 388 C363.70282472 388.57097886 362.41168825 389.15576611 361.125 389.75 C344.43396842 397.27623887 326.60293976 403.34050833 308.95703125 408.16796875 C306.42655731 408.87997793 303.97449192 409.68036851 301.5 410.5625 C296.12663375 412.3963461 290.59140513 413.4345068 285.03759766 414.57324219 C280.53690116 415.51587548 276.05421066 416.54285988 271.56860352 417.55444336 C261.49245647 419.81077607 251.35827407 421.72132727 241.1875 423.5 C240.04474609 423.71269531 238.90199219 423.92539062 237.72460938 424.14453125 C215.22861683 428.03508487 192.25432255 428.31917076 169.48364258 428.20581055 C165.64332546 428.18728693 161.80324833 428.18530389 157.96289062 428.18554688 C124.41509557 428.13836519 124.41509557 428.13836519 118 426 C115.751487 425.86756141 113.50092688 425.76922452 111.25 425.6875 C96.8041009 424.96773941 82.50357044 421.87557182 68.41796875 418.71875 C63.56050794 417.69729538 58.67067403 416.87619937 53.77001953 416.08959961 C49.9203866 415.44616488 46.59997959 414.46284885 43 413 C40.57079214 412.48042699 38.13201984 412.0044612 35.6875 411.5625 C31.02462374 410.67619586 26.59425112 409.70217818 22.203125 407.87890625 C19.09701641 406.63976719 15.92454567 405.60962213 12.75 404.5625 C12.10442139 404.34827393 11.45884277 404.13404785 10.79370117 403.91333008 C7.69957058 402.88762366 4.60286451 401.87043177 1.50390625 400.859375 C-0.07583984 400.34117187 -0.07583984 400.34117187 -1.6875 399.8125 C-3.08548828 399.35810547 -3.08548828 399.35810547 -4.51171875 398.89453125 C-6.78793395 398.07623724 -8.84450291 397.08676736 -11 396 C-12.051875 395.71125 -13.10375 395.4225 -14.1875 395.125 C-17.96832467 394.00934682 -21.37105155 392.57419862 -24.9453125 390.9375 C-26.44633367 390.25262342 -27.96812024 389.6127519 -29.5 389 C-31.71681094 388.11327562 -33.88485291 387.16529861 -36.0625 386.1875 C-40.73027402 384.09208386 -45.45850686 382.16025848 -50.203125 380.24609375 C-52.95671758 379.01928365 -55.43185347 377.57135746 -58 376 C-58.86625 375.67 -59.7325 375.34 -60.625 375 C-63 374 -63 374 -64.296875 372.5859375 C-66.53195085 370.50465128 -68.78009967 369.72032338 -71.625 368.625 C-77.02749843 366.44971518 -81.99423946 363.96115412 -87 361 C-87.8353125 360.525625 -88.670625 360.05125 -89.53125 359.5625 C-93.45382477 357.29402303 -97.08692338 355.06269892 -100.4375 352 C-103.9974451 348.78267873 -107.97427545 346.76873488 -112.19921875 344.5390625 C-120.57293653 339.93760531 -127.9810754 333.74281005 -135.52294922 327.91772461 C-140.97069314 323.72943137 -146.53989169 319.79737753 -152.265625 316 C-155.16040303 313.88267664 -157.59949181 311.66333756 -160 309 C-160 308.34 -160 307.68 -160 307 C-160.804375 306.731875 -161.60875 306.46375 -162.4375 306.1875 C-163.283125 305.795625 -164.12875 305.40375 -165 305 C-165.33 304.01 -165.66 303.02 -166 302 C-166.825 301.67 -167.65 301.34 -168.5 301 C-169.325 300.67 -170.15 300.34 -171 300 C-171.33 299.01 -171.66 298.02 -172 297 C-172.99 296.67 -173.98 296.34 -175 296 C-175 295.34 -175 294.68 -175 294 C-175.99 293.67 -176.98 293.34 -178 293 C-178 292.34 -178 291.68 -178 291 C-178.66 291 -179.32 291 -180 291 C-180 290.34 -180 289.68 -180 289 C-180.99 288.67 -181.98 288.34 -183 288 C-183 287.34 -183 286.68 -183 286 C-183.66 286 -184.32 286 -185 286 C-185 285.34 -185 284.68 -185 284 C-185.598125 283.7525 -186.19625 283.505 -186.8125 283.25 C-189.29754739 281.82997292 -190.31362486 280.27294041 -192 278 C-192.99 277.67 -193.98 277.34 -195 277 C-195.69937532 275.68352881 -196.36729133 274.34977849 -197 273 C-197.66 272.67 -198.32 272.34 -199 272 C-199 271.34 -199 270.68 -199 270 C-199.66 270 -200.32 270 -201 270 C-202.36639342 268.3603279 -203.6949419 266.68889872 -205 265 C-205.639375 264.360625 -206.27875 263.72125 -206.9375 263.0625 C-209.47880415 260.52119585 -211.69986841 257.7601579 -214 255 C-214.70125 254.319375 -215.4025 253.63875 -216.125 252.9375 C-218 251 -218 251 -219.4375 248.5625 C-220.89543076 246.17149356 -222.45077869 244.57129148 -224.46875 242.6640625 C-227.39220881 239.48703838 -229.76020636 235.86111977 -232.23046875 232.328125 C-233.78958809 229.92126034 -233.78958809 229.92126034 -236 229 C-236.33 228.01 -236.66 227.02 -237 226 C-237.66 225.67 -238.32 225.34 -239 225 C-239.96447628 223.30385207 -240.92577824 221.60573562 -241.86328125 219.89453125 C-243.09912615 217.72477983 -243.09912615 217.72477983 -245.5 215 C-247.67945515 212.38465382 -249.34171546 209.82307786 -250.9765625 206.84765625 C-253.65601715 202.01032018 -256.61619244 197.43542053 -260 193.0625 C-262.62499357 189.63654685 -264.72462907 186.09272893 -266.7265625 182.2734375 C-268.02310576 179.87357309 -268.02310576 179.87357309 -269.89453125 177.26953125 C-272.81212051 172.73887779 -274.89690695 167.9256486 -277.08789062 163.01367188 C-277.42111328 162.28341797 -277.75433594 161.55316406 -278.09765625 160.80078125 C-278.39164307 160.14247314 -278.68562988 159.48416504 -278.98852539 158.8059082 C-280.08881114 156.84143472 -281.40309957 155.57162111 -283 154 C-284.09765625 151.37109375 -284.09765625 151.37109375 -285.0625 148.4375 C-286.36563881 144.31782176 -286.36563881 144.31782176 -289 141 C-289.69735651 139.34593951 -290.35879675 137.67662775 -291 136 C-291.9496128 133.9542627 -292.90863544 131.9128776 -293.875 129.875 C-296.26537149 124.74444657 -298.3274866 119.60207907 -300.140625 114.2421875 C-300.9930701 111.77186893 -300.9930701 111.77186893 -303 109 C-303.69497067 106.78566026 -304.33423081 104.55356024 -304.9375 102.3125 C-306.14350808 97.84489922 -307.49906241 93.53498799 -309.15454102 89.22094727 C-322.21471889 54.91299516 -322.21471889 54.91299516 -320 47 C-311.875 44.96875 -303.75 42.9375 -295.625 40.90625 C-294.30871361 40.57708588 -294.30871361 40.57708588 -292.96583557 40.24127197 C-291.18660485 39.79658963 -289.40725564 39.35238115 -287.62779236 38.90863037 C-283.71329549 37.93194358 -279.80001394 36.95183978 -275.89282227 35.94628906 C-198.23904167 16.10798513 -117.56975066 6.01801231 -37.6875 1.1875 C-36.1208963 1.09221008 -36.1208963 1.09221008 -34.52264404 0.99499512 C-23.00315276 0.30699784 -11.5417401 -0.19400743 0 0 Z " fill="#FEFEFE" transform="translate(529,590)"/>
<path d="M0 0 C0.38478516 1.58748047 0.38478516 1.58748047 0.77734375 3.20703125 C3.29512343 13.30191327 6.26903965 23.19295492 9.5625 33.0625 C9.93818115 34.19083252 10.3138623 35.31916504 10.70092773 36.48168945 C12.69450433 42.38562574 14.80968145 48.20611793 17.18334961 53.96826172 C17.85570682 55.64101409 18.44040105 57.34872822 19 59.0625 C20.13150238 62.38628824 21.54787285 65.51523235 22.99609375 68.7109375 C23.90717109 70.78833563 24.72333331 72.8694717 25.5 75 C27.89426533 81.53218041 30.83771122 87.80718446 34 94 C37.76556777 101.38461538 37.76556777 101.38461538 39 104.625 C39.96022134 107.13436842 39.96022134 107.13436842 41.80859375 109.60546875 C44.84663929 114.09327237 46.8870601 119.0522757 49.08789062 123.98632812 C49.42111328 124.71658203 49.75433594 125.44683594 50.09765625 126.19921875 C50.39164307 126.85752686 50.68562988 127.51583496 50.98852539 128.1940918 C52.0903266 130.16127102 53.37372561 131.45272936 55 133 C55.79363371 134.32906467 56.54078962 135.68653198 57.25 137.0625 C59.64003587 141.50217269 62.40166976 145.55615813 65.3515625 149.640625 C67.0245543 152.03514407 68.51620755 154.48450811 70 157 C74.56022783 164.54212771 74.56022783 164.54212771 79.9375 171.5 C82 174 82 174 82 177 C82.99 177.33 83.98 177.66 85 178 C85 178.99 85 179.98 85 181 C85.85271484 181.29970703 85.85271484 181.29970703 86.72265625 181.60546875 C89.86919769 183.53225313 91.4837196 186.27216125 93.4375 189.3125 C96.29229119 193.71176811 99.24263969 197.29411038 103 201 C103.350625 201.886875 103.70125 202.77375 104.0625 203.6875 C104.80256311 206.16723474 104.80256311 206.16723474 107.125 207.3125 C107.74375 207.539375 108.3625 207.76625 109 208 C109 208.66 109 209.32 109 210 C109.99 210.33 110.98 210.66 112 211 C112.66666667 212.66666667 113.33333333 214.33333333 114 216 C114.99 216.33 115.98 216.66 117 217 C117 217.66 117 218.32 117 219 C117.99 219.33 118.98 219.66 120 220 C120 220.66 120 221.32 120 222 C120.66 222 121.32 222 122 222 C122 222.66 122 223.32 122 224 C122.99 224.33 123.98 224.66 125 225 C125.6875 227.0625 125.6875 227.0625 126 229 C126.5775 229.061875 127.155 229.12375 127.75 229.1875 C130.88257571 230.3187079 132.03460851 232.37947801 134 235 C134.66 235.33 135.32 235.66 136 236 C136 236.66 136 237.32 136 238 C136.66 238 137.32 238 138 238 C139.625 239.375 139.625 239.375 141 241 C141 241.66 141 242.32 141 243 C141.66 243 142.32 243 143 243 C143.53625 243.70125 144.0725 244.4025 144.625 245.125 C147.18977145 248.22972334 149.88153704 250.25300471 153.12109375 252.59765625 C155.29777578 254.22224845 157.11154288 256.05062491 159 258 C160.85654963 259.56128139 162.72524361 261.10492444 164.609375 262.6328125 C165.06828125 263.08398438 165.5271875 263.53515625 166 264 C166 264.66 166 265.32 166 266 C166.58539551 266.27980713 167.17079102 266.55961426 167.77392578 266.84790039 C171.36965882 268.70886378 174.57746613 271.09825213 177.875 273.4375 C178.62297852 273.96593506 179.37095703 274.49437012 180.14160156 275.03881836 C185.7107505 279.00556804 191.12893036 283.13361696 196.44482422 287.43334961 C200.39741015 290.61433198 204.45658335 293.13156529 208.8671875 295.61328125 C214.13760656 298.59072579 218.84536667 301.54740892 223.32421875 305.609375 C226.55440526 308.28990273 230.29339347 310.06704187 234 312 C235.22226881 312.65976669 236.44354991 313.32136509 237.6640625 313.984375 C238.98419443 314.69825069 240.30450767 315.41179118 241.625 316.125 C242.55699219 316.63039307 242.55699219 316.63039307 243.5078125 317.14599609 C246.55090759 318.77472893 249.57156301 320.26217229 252.7734375 321.5546875 C255.68461955 322.85872789 256.91220226 323.74967908 259 326 C260.86341137 326.88262955 260.86341137 326.88262955 262.875 327.5 C266.21543983 328.66611718 268.96195085 330.17717051 272 332 C273.92604234 332.77979148 275.87250278 333.48148126 277.828125 334.18359375 C280.87385233 335.32848046 283.81129789 336.68759904 286.7734375 338.03125 C288.86884665 338.94293679 290.97237868 339.73536231 293.125 340.5 C295.7742388 341.45623412 298.04861938 342.57425483 300.4375 344.0625 C303.76521257 346.06214588 306.91533674 346.72033343 310.69921875 347.4453125 C313.05568394 348.01342465 315.00432263 348.82999117 317.1875 349.875 C322.19019715 352.23592199 327.38060541 353.60052037 332.703125 355.0625 C336.58211747 356.16553103 340.24389528 357.53575579 344 359 C350.39899848 361.40119589 356.84381389 362.87888182 363.53515625 364.25 C366.50966222 364.8938615 369.39329091 365.6468978 372.3125 366.5 C378.94634456 368.36094768 385.70924226 369.42397196 392.49316406 370.56884766 C397.23126684 371.38375704 401.95860574 372.25852681 406.6875 373.125 C409.37396926 373.61688874 412.06056561 374.10779358 414.74829102 374.59277344 C416.5442726 374.91758069 418.33880467 375.25039988 420.1328125 375.5859375 C424.51702644 376.21908011 428.92202984 376.3890885 433.34179688 376.60546875 C436.43981661 376.77450463 439.04004167 377.01334722 442 378 C455.51993784 379.50432276 469.24194023 379.18616193 482.8215332 379.18530273 C486.63439436 379.18746982 490.4469561 379.20562791 494.25976562 379.22460938 C516.97792716 379.27831813 539.80184538 378.6665347 562.1875 374.5 C563.40373047 374.28730469 564.61996094 374.07460938 565.87304688 373.85546875 C576.44373851 371.98971592 586.94646666 369.82912459 597.4375 367.5625 C598.39720703 367.35818359 599.35691406 367.15386719 600.34570312 366.94335938 C606.11018744 365.69729913 611.79872024 364.28847969 617.4753418 362.68823242 C620.0956114 361.97393593 622.72726213 361.3536569 625.375 360.75 C636.82027851 357.9262305 648.06902334 353.91358247 659.08349609 349.72802734 C661.03963348 348.98494433 663.0012979 348.25841571 664.96484375 347.53515625 C672.08368991 344.90142132 679.11328019 342.20219073 686 339 C690.96900125 336.73901846 695.91310565 334.5854487 701.078125 332.80859375 C703.12076098 332.00343758 703.12076098 332.00343758 705.33203125 330.59375 C708.28342091 328.83069439 711.29617753 327.45740998 714.4375 326.0625 C718.96906823 324.00084058 722.95093221 321.86397478 727 319 C729.6104646 317.63801847 732.24604832 316.3546194 734.91015625 315.1015625 C739.01477646 313.12438513 742.63859557 310.92559585 746.296875 308.21484375 C748.45281047 306.67700905 750.7316445 305.386363 753.04296875 304.09765625 C759.01569091 300.74768634 764.6759852 297.31676876 770 293 C771.65450652 292.09164348 773.30910462 291.18345154 774.96484375 290.27734375 C778.4766663 288.07318641 781.59055209 285.36442923 784.765625 282.70703125 C787 281 787 281 790 280 C791.09686905 278.86885379 792.19177972 277.73575008 793.27734375 276.59375 C796.38524134 273.71841617 799.9161238 271.39023229 803.37890625 268.96484375 C805.83056986 267.12700948 807.87614606 265.19938849 810 263 C811.68409647 261.50040827 813.40249286 260.04897155 815.125 258.59375 C816.40773144 257.50342828 817.67810987 256.39845092 818.9375 255.28125 C819.55625 254.7346875 820.175 254.188125 820.8125 253.625 C821.37582031 253.12226562 821.93914063 252.61953125 822.51953125 252.1015625 C824 251 824 251 826 251 C826 250.34 826 249.68 826 249 C827.50390625 247.484375 827.50390625 247.484375 829.5625 245.75 C830.28824219 245.13511719 831.01398437 244.52023437 831.76171875 243.88671875 C832.50035156 243.26410156 833.23898437 242.64148438 834 242 C834.66644531 241.40832031 835.33289062 240.81664062 836.01953125 240.20703125 C836.63183594 239.66433594 837.24414062 239.12164063 837.875 238.5625 C838.42929688 238.06878906 838.98359375 237.57507813 839.5546875 237.06640625 C841 236 841 236 843 236 C843 235.34 843 234.68 843 234 C843.66 234 844.32 234 845 234 C845.33 233.01 845.66 232.02 846 231 C848.21701147 229.41034429 850.57862473 228.27672514 853 227 C851.74712686 230.34538338 850.32996897 233.27326838 848.3828125 236.265625 C847.86460938 237.06444092 847.34640625 237.86325684 846.8125 238.6862793 C845.9771875 239.95532104 845.9771875 239.95532104 845.125 241.25 C844.25488281 242.57801636 844.25488281 242.57801636 843.3671875 243.93286133 C831.23728179 262.34361902 818.19190134 280.11987162 804 297 C803.56397461 297.52094238 803.12794922 298.04188477 802.67871094 298.57861328 C790.52067427 313.07278417 777.47860047 326.6119236 764.125 340 C763.53709686 340.59058197 762.94919373 341.18116394 762.34347534 341.78964233 C756.07356905 348.08119803 749.79644133 354.27143394 743 360 C741.8815782 360.9725407 740.76436181 361.94646961 739.6484375 362.921875 C732.19088172 369.3816364 724.59913758 375.6232834 716.77441406 381.63330078 C715.04759034 382.9633447 713.33239051 384.30736755 711.6171875 385.65234375 C645.04006649 437.25788413 565.74953933 471.89051821 391.5 499.5625 C390.28441406 499.60568359 389.06882812 499.64886719 387.81640625 499.69335938 C337.39727805 501.38834608 286.88606294 496.45961839 238 484 C236.80020508 483.70254883 235.60041016 483.40509766 234.36425781 483.09863281 C193.88331173 473.04631734 155.29587049 458.69397953 118 440 C116.89914062 439.45085937 115.79828125 438.90171875 114.6640625 438.3359375 C83.23682146 422.58635904 53.50110175 403.93654334 26 382 C24.99018066 381.1963501 24.99018066 381.1963501 23.95996094 380.37646484 C16.81849754 374.67445795 9.77007239 368.86249981 2.8125 362.9375 C2.31532471 362.515896 1.81814941 362.09429199 1.3059082 361.65991211 C-9.73491367 352.17354251 -20.14239402 342.02143369 -30.41357422 331.71679688 C-32.3904601 329.73449756 -34.37271039 327.75767367 -36.35546875 325.78125 C-42.44891179 319.69128838 -48.45934934 313.60489061 -54 307 C-54.94842527 305.91613147 -55.89890993 304.83406113 -56.8515625 303.75390625 C-64.06935627 295.47815483 -70.80959983 286.90134901 -77.40185547 278.12158203 C-78.94616689 276.07146497 -80.50407504 274.03249782 -82.06640625 271.99609375 C-89.48890776 262.28140229 -96.38218883 252.27841339 -103 242 C-103.50611816 241.21592773 -104.01223633 240.43185547 -104.53369141 239.62402344 C-125.11234018 207.55222204 -142.34798456 173.57627013 -156 138 C-156.4237793 136.89640137 -156.84755859 135.79280273 -157.28417969 134.65576172 C-164.70474633 115.1061905 -170.5454817 95.17005723 -176 75 C-176.32500488 73.83855469 -176.65000977 72.67710937 -176.98486328 71.48046875 C-177.26958496 70.42472656 -177.55430664 69.36898437 -177.84765625 68.28125 C-178.09652588 67.37439453 -178.34539551 66.46753906 -178.60180664 65.53320312 C-179.07552813 62.51950956 -179.20477672 60.83028771 -178 58 C-175.63198275 56.69911162 -173.61963709 55.83469613 -171.08984375 54.984375 C-170.38006378 54.72746384 -169.67028381 54.47055267 -168.93899536 54.20585632 C-166.61150938 53.36809716 -164.27505058 52.55920346 -161.9375 51.75 C-160.31689708 51.17269912 -158.69702643 50.59333864 -157.07788086 50.01196289 C-153.85392784 48.856021 -150.62694921 47.70922669 -147.39746094 46.56884766 C-142.8316794 44.94956949 -138.30717576 43.23284241 -133.78808594 41.48779297 C-26.12427359 0 -26.12427359 0 0 0 Z " fill="#A19E9E" transform="translate(208,638)"/>
<path d="M0 0 C1.20446777 0.13921875 2.40893555 0.2784375 3.64990234 0.421875 C70.48743626 8.16180655 135.03747593 28.76391481 195 59 C196.04542969 59.52480957 197.09085938 60.04961914 198.16796875 60.59033203 C228.4945245 75.88466256 257.0230611 94.3846902 284 115 C284.63679687 115.4851709 285.27359375 115.9703418 285.9296875 116.47021484 C297.56147277 125.36889867 308.67264379 134.88018075 319.50170898 144.73706055 C321.05529291 146.14428906 322.61606644 147.54367296 324.18774414 148.93066406 C330.85960985 154.83618127 337.19242744 161.03857137 343.47827148 167.34790039 C345.19207233 169.0670867 346.91119082 170.78082583 348.63085938 172.49414062 C354.30242731 178.16233111 359.80155358 183.88935067 365 190 C366.4132355 191.5448126 367.82940409 193.08695325 369.25 194.625 C373.7992233 199.66686339 377.9690272 204.95182698 382.125 210.31640625 C384.01042835 212.74704191 385.92479527 215.14838467 387.875 217.52734375 C396.14797295 227.63721823 403.62627163 238.22161746 411 249 C411.86065064 250.24350789 412.72132518 251.48699923 413.58203125 252.73046875 C466.7628547 330.30356322 498.602418 421.88463768 508.25 515.1875 C508.33326538 515.98926666 508.41653076 516.79103333 508.50231934 517.61709595 C510.74061863 539.48777831 511.21395438 561.26016457 511.24023438 583.22973633 C511.24460311 586.35225203 511.25846209 589.47448896 511.28125 592.59692383 C511.45995127 617.63268598 510.45805238 642.25690245 505.375 666.875 C505.12266602 668.13143311 504.87033203 669.38786621 504.61035156 670.68237305 C488.73102318 748.77551482 461.97469392 821.59964729 411 901 C410.57960449 901.61198242 410.15920898 902.22396484 409.72607422 902.85449219 C399.40774962 917.83587083 388.38548131 932.2392416 376.52734375 946.03515625 C374.04904625 948.94246352 371.64475204 951.89872301 369.25 954.875 C366.26099762 958.55009011 363.17515789 961.95813943 359.76098633 965.23803711 C358.09626907 966.90367755 356.58418633 968.62262462 355.06640625 970.421875 C350.36911996 975.82536629 345.30003578 980.84973986 340.23022461 985.90014648 C338.56573723 987.5592732 336.90666553 989.22368051 335.24804688 990.88867188 C329.67094487 996.46963029 324.02462461 1001.89943319 318 1007 C316.83163019 1008.02149274 315.66494666 1009.04491759 314.5 1010.0703125 C278.57744793 1041.48471673 239.2353711 1067.78640217 197 1090 C196.1553418 1090.44762695 195.31068359 1090.89525391 194.44042969 1091.35644531 C120.44506988 1130.32979848 33.41726881 1152.89958203 -50.234375 1153.203125 C-52.19178368 1153.21364647 -52.19178368 1153.21364647 -54.18873596 1153.22438049 C-58.37582904 1153.24376266 -62.56286657 1153.24881486 -66.75 1153.25 C-67.82173777 1153.25066278 -67.82173777 1153.25066278 -68.9151268 1153.25133896 C-91.08464344 1153.25852403 -112.98290851 1152.81355427 -135 1150 C-136.42651305 1149.82598664 -137.85311081 1149.65266648 -139.27978516 1149.47998047 C-218.29017382 1139.80689227 -295.73317622 1113.69661364 -399 1050 C-400.46870326 1048.96477744 -401.93745537 1047.92962417 -403.40625 1046.89453125 C-413.00924738 1040.08353162 -422.22905384 1032.90987172 -431.29443359 1025.40136719 C-433.60566055 1023.50236308 -435.95877264 1021.65841531 -438.3125 1019.8125 C-442.77279599 1016.2592558 -446.97792105 1012.46041453 -451.1640625 1008.58984375 C-453.36505914 1006.57984269 -455.58640031 1004.61073443 -457.8359375 1002.65625 C-461.9751534 999.04626451 -466.00059994 995.32621333 -470 991.5625 C-470.69988037 990.90435303 -471.39976074 990.24620605 -472.12084961 989.56811523 C-478.66213102 983.40053417 -485.03504313 977.21161452 -490.89453125 970.38671875 C-493.10570233 967.88017787 -495.3792115 965.44298683 -497.66723633 963.00683594 C-503.73283936 956.54495262 -509.46153625 949.92307969 -515 943 C-515.99294221 941.79664861 -516.98786509 940.59492985 -517.984375 939.39453125 C-536.5964558 916.90575774 -553.56453714 892.38750967 -568 867 C-568.50950195 866.11199707 -569.01900391 865.22399414 -569.54394531 864.30908203 C-587.80625223 832.42028457 -602.7192684 799.64768147 -615 765 C-615.51723633 763.56503174 -615.51723633 763.56503174 -616.04492188 762.10107422 C-644.06473739 684.0088106 -651.96884809 600.21648899 -590.68969727 325.72314453 C-570.23480989 282.68576895 -544.49637599 242.6054571 -514 206 C-513.5246582 205.42556152 -513.04931641 204.85112305 -512.55957031 204.25927734 C-506.12140151 196.48526735 -499.41368556 189.00572128 -492.52050781 181.63378906 C-490.99135927 179.99071552 -489.474408 178.33720535 -487.9609375 176.6796875 C-479.76155139 167.70727305 -471.47585497 158.8310205 -462.21484375 150.93359375 C-459.88697751 148.90132957 -457.62901308 146.80672496 -455.37133789 144.69726562 C-450.05492499 139.73312192 -444.66178543 134.94794568 -438.984375 130.39453125 C-436.76972458 128.61759315 -434.57507619 126.82504198 -432.390625 125.01171875 C-366.13063913 70.18391354 -285.53688569 31.19899551 -138.05010986 0.25714111 C-136.08840835 0.01108888 -134.12790707 -0.2444764 -132.16748047 -0.50048828 C-89.18211335 -5.89107964 -42.94585625 -5.41859342 0 0 Z M-125 15 C-126.3329736 15.1272307 -127.66597723 15.25414752 -128.99902344 15.38061523 C-132.04524745 15.68358062 -135.08486512 16.01651071 -138.125 16.375 C-139.72480713 16.56280029 -139.72480713 16.56280029 -141.35693359 16.75439453 C-247.24897053 29.65200388 -347.61055542 75.33520033 -429.12109375 143.625 C-431.58685404 145.6591686 -434.08286511 147.62563532 -436.625 149.5625 C-447.99362147 158.37116593 -457.88938374 168.78411406 -467.99365234 178.97900391 C-469.54008035 180.53672246 -471.09453513 182.08647522 -472.65234375 183.6328125 C-480.74829402 191.79611677 -488.56595502 200.22232902 -495.73828125 209.2109375 C-497.86806738 211.83730589 -500.06091941 214.38836002 -502.28466797 216.93457031 C-509.29506994 224.97782473 -515.7371606 233.36533765 -522 242 C-522.48968262 242.67401855 -522.97936523 243.34803711 -523.48388672 244.04248047 C-543.17155773 271.25989048 -559.91665163 300.00365408 -575 330 C-575.41556152 330.81645996 -575.83112305 331.63291992 -576.25927734 332.47412109 C-594.88165713 369.22690788 -607.45226434 409.03132825 -617 449 C-617.2067334 449.84852539 -617.4134668 450.69705078 -617.62646484 451.57128906 C-625.67235227 484.98820295 -631.28939903 521.61602593 -630 556 C-618.33850457 552.0121311 -606.89111057 547.61345336 -595.46679688 542.99365234 C-585.44280739 538.95588144 -575.37521843 535.07396819 -565.16723633 531.52612305 C-559.62135948 529.5918846 -554.11242699 527.56738516 -548.60620117 525.52319336 C-461.26335158 493.17245677 -371.79993487 466.17882644 -220.125 443.1875 C-219.23024963 443.08840332 -218.33549927 442.98930664 -217.41363525 442.88720703 C-193.65116524 440.28069225 -169.86988171 438.61917693 -146 437.375 C-143.45961796 437.2399113 -140.91925324 437.10449622 -138.37890625 436.96875 C-132.25279791 436.64208884 -126.12649166 436.31938734 -120 436 C-119.33230591 434.54001587 -119.33230591 434.54001587 -118.65112305 433.05053711 C-115.2871391 425.73860077 -111.87678193 418.51835975 -107.8125 411.5625 C-107.11821899 410.3720105 -107.11821899 410.3720105 -106.40991211 409.1574707 C-94.33352945 388.87635278 -78.49992724 370.60260923 -60 356 C-59.09507812 355.278125 -58.19015625 354.55625 -57.2578125 353.8125 C-26.22291103 329.74110828 13.53050884 313.13505446 53.16015625 312.76171875 C54.01913513 312.7519249 54.87811401 312.74213104 55.76312256 312.73204041 C73.83599526 312.56832134 91.38215053 312.45546639 109 317 C109.87237305 317.21430664 110.74474609 317.42861328 111.64355469 317.64941406 C144.102108 325.73756282 173.02904372 340.80359442 198 363 C198.52078125 363.45375 199.0415625 363.9075 199.578125 364.375 C206.82549347 370.68953887 213.08520286 377.40004367 219 385 C219.96292969 386.14662109 219.96292969 386.14662109 220.9453125 387.31640625 C240.51485494 410.72855116 251.85536556 438.88897987 260 468 C261.09163452 468.22550537 261.09163452 468.22550537 262.20532227 468.45556641 C288.33709636 473.88165714 313.66222978 480.56723969 339 489 C340.04961914 489.34369629 341.09923828 489.68739258 342.18066406 490.04150391 C371.98017733 499.81547946 400.7414371 512.35781118 429.48071289 524.84521484 C445.77948263 531.92628115 462.14280955 538.84748692 478.53646851 545.70570374 C483.77009501 547.89653303 483.77009501 547.89653303 485.91171265 548.86035156 C488.79612995 550.15076243 490.80033568 551 494 551 C495.37631502 523.05315896 490.54218818 494.29442677 485 467 C484.69642578 465.49808105 484.69642578 465.49808105 484.38671875 463.96582031 C483.01982355 457.28787587 481.54404941 450.63906703 480 444 C479.78263184 443.05801758 479.56526367 442.11603516 479.34130859 441.14550781 C464.01011016 375.3959012 435.41969647 312.45196624 397 257 C396.57944336 256.39188477 396.15888672 255.78376953 395.72558594 255.15722656 C386.11021657 241.32418923 375.8438216 227.89086956 365 215 C364.55333984 214.46842285 364.10667969 213.9368457 363.64648438 213.38916016 C362.16487986 211.63038132 360.67732988 209.87681524 359.1875 208.125 C358.53189087 207.35023315 358.53189087 207.35023315 357.86303711 206.55981445 C348.45525647 195.57382586 338.38363502 185.21875143 328.14404297 175.01367188 C326.23417006 173.10921495 324.32977851 171.19939181 322.42578125 169.2890625 C316.45409474 163.31378718 310.47563613 157.43437478 304 152 C302.88139051 151.02767518 301.76417752 150.0537412 300.6484375 149.078125 C293.19907791 142.62546318 285.61631321 136.38852998 277.80078125 130.38427734 C276.60290042 129.46345518 275.40756727 128.53930901 274.21484375 127.61181641 C248.26916139 107.45908202 220.08260934 90.20483993 191 75 C189.56430664 74.24420654 189.56430664 74.24420654 188.09960938 73.47314453 C148.0885053 52.51981754 104.99939319 37.11315029 61 27 C60.32356445 26.84225098 59.64712891 26.68450195 58.95019531 26.52197266 C18.23493917 17.05608956 -22.55952265 12.41445635 -64.33093262 12.6774292 C-67.24098644 12.69094034 -70.15088951 12.68557114 -73.06096077 12.68056107 C-90.45461298 12.65802032 -107.68145913 13.25872208 -125 15 Z M-76 386 C-88.63043578 400.60353572 -111 426.97993529 -111 447 C-111.66032227 446.99129883 -112.32064453 446.98259766 -113.00097656 446.97363281 C-182.95111243 446.47719724 -254.69290633 455.86949493 -323.02441406 470.36865234 C-326.25134354 471.05332904 -329.48107655 471.72382713 -332.7109375 472.39453125 C-353.10844413 476.66387611 -373.62669246 480.96677489 -393.56030273 487.0949707 C-399.90306337 489.02908954 -406.32176394 490.62681894 -412.75 492.25 C-423.84430648 495.06534794 -434.76179464 498.29595837 -445.65332031 501.80371094 C-451.54418669 503.68586905 -457.41039616 505.3695059 -463.4296875 506.79296875 C-474.15105795 509.37181988 -484.5181833 513.04391355 -494.9375 516.625 C-496.00838867 516.99083191 -497.07927734 517.35666382 -498.18261719 517.73358154 C-528.68958606 528.16043412 -558.99445766 539.20545643 -589 551 C-589.41453235 561.99163533 -588.66673731 570.5236077 -585 581 C-584.34 581 -583.68 581 -583 581 C-582.92910156 581.98097656 -582.85820313 582.96195313 -582.78515625 583.97265625 C-582.10705158 588.71938896 -579.86631553 592.37211657 -577.4375 596.4375 C-577.01275391 597.16904297 -576.58800781 597.90058594 -576.15039062 598.65429688 C-575.11040486 600.44213758 -574.05659823 602.22192662 -573 604 C-572.34 604 -571.68 604 -571 604 C-570.62875 604.804375 -570.62875 604.804375 -570.25 605.625 C-567.42258772 610.99708334 -564.32549811 614.76490812 -559.66015625 618.55859375 C-558 620 -558 620 -555.9375 622.625 C-553.58785042 625.50521561 -551.15726727 627.03415434 -548 629 C-547.32839844 629.47566406 -546.65679688 629.95132812 -545.96484375 630.44140625 C-540.55045673 634.25153045 -535.18934734 636.71572326 -529 639 C-527.24900686 639.72677854 -525.4989898 640.45591356 -523.75 641.1875 C-514.17526706 644.99054813 -505.76530017 644.62778822 -496.1484375 641.5078125 C-495.3072789 641.246017 -494.4661203 640.9842215 -493.59947205 640.7144928 C-491.79291703 640.15196061 -489.98778783 639.58483234 -488.18399048 639.01351929 C-483.40318127 637.50128875 -478.61067096 636.02752374 -473.81640625 634.55859375 C-472.35133888 634.10946373 -472.35133888 634.10946373 -470.85667419 633.65126038 C-460.74194579 630.57563893 -450.54557868 627.83848615 -440.3125 625.1875 C-439.47910095 624.97136047 -438.6457019 624.75522095 -437.78704834 624.53253174 C-433.19419818 623.34376316 -428.59859155 622.16635294 -424 621 C-424 620.34 -424 619.68 -424 619 C-422.72080688 618.80096069 -422.72080688 618.80096069 -421.41577148 618.59790039 C-418.01611561 618.00282089 -414.70054077 617.25075464 -411.34765625 616.43359375 C-410.01987233 616.11320475 -408.69198644 615.79323816 -407.36401367 615.47363281 C-406.31532608 615.22063416 -406.31532608 615.22063416 -405.24545288 614.96252441 C-385.26157315 610.15617938 -365.15816244 606.00270176 -345 602 C-343.91380371 601.78359863 -342.82760742 601.56719727 -341.70849609 601.34423828 C-336.67466583 600.34687963 -331.63566175 599.38593887 -326.58642578 598.46972656 C-324.76897887 598.13965597 -322.9523096 597.80528857 -321.13623047 597.46777344 C-251.86258607 584.65275371 -181.37636167 578.17987723 -111 576 C-110.846521 576.59353271 -110.69304199 577.18706543 -110.53491211 577.79858398 C-108.63128373 584.672909 -105.89196908 590.76784809 -102.5625 597.0625 C-101.77178101 598.56369385 -101.77178101 598.56369385 -100.96508789 600.09521484 C-77.95067739 642.87188818 -37.7257285 676.85885441 8.89282227 691.08618164 C17.79865747 693.64492343 26.872742 695.43794091 36 697 C37.46373047 697.26707764 37.46373047 697.26707764 38.95703125 697.53955078 C47.41306589 698.98727152 55.67843355 699.38546973 64.25 699.375 C64.93954773 699.37512085 65.62909546 699.3752417 66.33953857 699.37536621 C84.59144145 699.33023629 102.67604073 696.93055625 120 691 C120.78342773 690.7426709 121.56685547 690.4853418 122.37402344 690.22021484 C167.17667865 675.42247102 201.86946 646.50562255 227 607 C227.33 606.34 227.66 605.68 228 605 C237.02291314 606.26925547 245.87182477 607.95791922 254.75 610 C255.39208405 610.14662079 256.03416809 610.29324158 256.69570923 610.44430542 C267.99393871 613.0252845 279.27005041 615.7024939 290.53552246 618.42260742 C292.26909903 618.8409001 294.00305289 619.25763301 295.73742676 619.67260742 C307.53220584 622.50040326 319.14714485 625.74057403 330.73847961 629.31037903 C334.39954638 630.42677331 338.07474995 631.49394133 341.75 632.5625 C349.21831409 634.75017598 356.64759609 637.05075286 364.06884766 639.39257812 C367.12635764 640.35428291 370.18880887 641.30008734 373.25 642.25 C380.96668384 644.66102836 388.67236372 647.10702203 396.375 649.5625 C397.56383789 649.93858398 398.75267578 650.31466797 399.97753906 650.70214844 C405.98548923 652.62395139 411.8660437 654.68173171 417.69873047 657.08227539 C422.06595147 658.82388198 426.55584246 660.2014925 431.03515625 661.62304688 C435.31971916 663.01458191 439.47164893 664.58362698 443.62109375 666.33984375 C450.08246734 669.07377785 456.63726381 671.51447862 463.22827148 673.91210938 C465.19693902 674.62843451 467.16399407 675.34905536 469.13085938 676.0703125 C475.72231187 678.48149372 482.32608003 680.82641732 489 683 C491.68424036 673.54804724 493.61131878 664.08079346 495.125 654.375 C495.36234863 652.88734131 495.36234863 652.88734131 495.60449219 651.36962891 C498.27204363 633.63907993 499.31864175 615.98824833 499.20581055 598.0715332 C499.18719147 595.01179905 499.18530436 591.95236389 499.18554688 588.89257812 C499.1806418 586.91926823 499.17481795 584.94596035 499.16796875 582.97265625 C499.16685593 582.0716066 499.1657431 581.17055695 499.16459656 580.24220276 C499.12830709 575.41060468 499.069157 570.7244143 498 566 C495.2622507 564.17600528 493.04456806 563.16017028 490 562 C488.21897089 561.27203064 486.43794236 560.54405982 484.65692139 559.81607056 C482.55192177 558.96167564 480.44213272 558.12025536 478.33056641 557.28222656 C463.67623272 551.46562795 449.17259001 545.38465252 434.78314209 538.9402771 C372.36915933 510.93014157 372.36915933 510.93014157 307.18408203 490.54248047 C303.98339281 489.74749596 300.80613634 488.86948732 297.625 488 C290.99221358 486.24013025 284.34193501 484.55100675 277.6875 482.875 C276.68477051 482.62105469 275.68204102 482.36710938 274.64892578 482.10546875 C262.48345079 478.82096089 262.48345079 478.82096089 250 478 C249.77957031 476.58074219 249.77957031 476.58074219 249.5546875 475.1328125 C241.96225317 429.22534359 213.82737062 386.42421811 176.30859375 359.30859375 C162.58377896 349.57076197 148.50206254 341.78813445 132.80957031 335.71386719 C131.29432567 335.11611013 129.79690695 334.47342884 128.3046875 333.8203125 C120.50836346 330.4110725 112.29594597 328.70917449 104 327 C102.69651611 326.7205957 102.69651611 326.7205957 101.36669922 326.43554688 C36.11900505 312.74316218 -31.64369541 336.91558915 -76 386 Z M-155.6875 588.1875 C-157.30727753 588.28544861 -157.30727753 588.28544861 -158.95977783 588.38537598 C-249.49985861 593.94229139 -339.67959256 607.69327655 -427.30999756 631.27740479 C-430.09047716 632.0243042 -432.87243779 632.76546165 -435.65478516 633.50537109 C-457.54609282 639.33272978 -479.34234264 645.3478824 -500.90032959 652.32226562 C-503.23273106 653.07512124 -505.56669686 653.82299609 -507.90087891 654.5703125 C-529.63878848 661.53438723 -551.32107453 668.61512007 -572.76025391 676.45751953 C-575.89803193 677.60335058 -579.04204064 678.73061054 -582.18896484 679.85107422 C-586.83980432 681.5074063 -591.48244087 683.18518481 -596.12075806 684.87625122 C-597.94687897 685.53844288 -599.77547079 686.19386245 -601.60653687 686.84225464 C-604.15917553 687.74813538 -606.70115654 688.6793244 -609.2421875 689.6171875 C-610.01346481 689.88454208 -610.78474213 690.15189667 -611.57939148 690.42735291 C-615.64972069 691.90553329 -615.64972069 691.90553329 -618.07543945 695.29516602 C-617.98312019 698.60521502 -617.39017831 701.45223137 -616.55078125 704.66015625 C-616.3825032 705.30963226 -616.21422516 705.95910828 -616.04084778 706.62826538 C-615.47814596 708.77682656 -614.89697602 710.9197659 -614.3125 713.0625 C-614.1125946 713.80597687 -613.91268921 714.54945374 -613.70672607 715.31546021 C-598.61288897 771.27511379 -575.59042575 825.32343406 -544 874 C-543.28714844 875.10601563 -542.57429687 876.21203125 -541.83984375 877.3515625 C-539.92986899 880.26162671 -537.97882014 883.13631124 -536 886 C-535.57428711 886.6172998 -535.14857422 887.23459961 -534.70996094 887.87060547 C-524.43775599 902.72211512 -513.62726492 917.17779221 -502 931 C-501.55333984 931.53157715 -501.10667969 932.0631543 -500.64648438 932.61083984 C-499.16487986 934.36961868 -497.67732988 936.12318476 -496.1875 937.875 C-495.75042725 938.39151123 -495.31335449 938.90802246 -494.86303711 939.44018555 C-485.32351848 950.58001192 -475.09896381 961.06511562 -464.71679688 971.41357422 C-462.73449756 973.3904601 -460.75767367 975.37271039 -458.78125 977.35546875 C-452.69180717 983.44844048 -446.60893413 989.46492127 -440 995 C-438.88130677 995.97222848 -437.76409592 996.9461655 -436.6484375 997.921875 C-429.2566549 1004.32518259 -421.74018003 1010.52426198 -413.98144531 1016.47802734 C-412.60280769 1017.53697596 -411.22738689 1018.60012029 -409.85449219 1019.66650391 C-380.93646022 1042.09260575 -349.65882442 1060.60685847 -317 1077 C-316.02450195 1077.49242187 -315.04900391 1077.98484375 -314.04394531 1078.4921875 C-261.78000003 1104.72379678 -203.02338456 1122.8961096 -145 1130 C-143.79085938 1130.15114258 -142.58171875 1130.30228516 -141.3359375 1130.45800781 C-124.06259881 1132.58081022 -106.83376454 1133.99593719 -89.4375 1134.5625 C-88.22642578 1134.60568359 -87.01535156 1134.64886719 -85.76757812 1134.69335938 C-3.17050599 1137.48051285 80.16250328 1121.84344395 210.20019531 1061.63232422 C212.97730775 1060.01322989 215.76504317 1058.41378983 218.5546875 1056.81640625 C244.98073295 1041.57420735 269.71712696 1023.68445332 293 1004 C293.62245605 1003.47664063 294.24491211 1002.95328125 294.88623047 1002.4140625 C308.00742825 991.37053369 320.45667558 979.71625198 332.55908203 967.57128906 C334.39110995 965.7338424 336.22850605 963.9018835 338.06640625 962.0703125 C343.92369478 956.2166771 349.66844875 950.34371009 355 944 C355.960782 942.8932642 356.92299289 941.78776703 357.88671875 940.68359375 C376.68929076 918.94674626 393.37329105 895.77380047 409.125 871.75 C409.5988916 871.03448975 410.0727832 870.31897949 410.56103516 869.58178711 C411.21531494 868.57450562 411.21531494 868.57450562 411.8828125 867.546875 C412.26840332 866.95745117 412.65399414 866.36802734 413.05126953 865.76074219 C414.09340642 864.02013719 414.09340642 864.02013719 414.44482422 861.96582031 C415.12449095 859.55919035 416.19330768 858.68868701 418 857 C419.54193153 854.43694113 421.00881891 851.87497096 422.4375 849.25 C422.87215576 848.45634033 423.30681152 847.66268066 423.75463867 846.8449707 C425.17763337 844.23417245 426.58942533 841.61752682 428 839 C428.70721191 837.69844971 428.70721191 837.69844971 429.42871094 836.37060547 C450.88938526 796.74921795 466.40011435 754.85544403 478 711.375 C478.30341309 710.25416016 478.60682617 709.13332031 478.91943359 707.97851562 C479.33056396 706.39200195 479.33056396 706.39200195 479.75 704.7734375 C479.99234375 703.84966309 480.2346875 702.92588867 480.484375 701.97412109 C481.13051284 698.24720294 481.08116082 694.78057237 481 691 C415.99092892 666.57757637 350.9833921 643.88227796 283.5625 627 C282.47070435 626.72623535 281.37890869 626.4524707 280.25402832 626.17041016 C269.66702054 623.52455857 259.06707977 620.94064737 248.40234375 618.625 C247.64909317 618.45718018 246.89584259 618.28936035 246.11976624 618.11645508 C241.69742686 617.18308341 237.54076698 616.57470849 233 617 C231.15590361 618.21179934 231.15590361 618.21179934 230.0078125 620.11328125 C229.53577393 620.77835693 229.06373535 621.44343262 228.57739258 622.12866211 C228.09810303 622.84932861 227.61881348 623.56999512 227.125 624.3125 C226.07053109 625.80055792 225.01453588 627.28753542 223.95703125 628.7734375 C223.44865723 629.50272461 222.9402832 630.23201172 222.41650391 630.98339844 C194.9085893 670.14495904 148.76709526 697.1860738 102.07299805 705.83618164 C99.71805187 706.24373671 97.3606127 706.62681677 95 707 C94.30986816 707.11569336 93.61973633 707.23138672 92.90869141 707.35058594 C44.46535567 715.2659334 -8.31530149 702.05554266 -48.25 673.875 C-50.8710254 671.96293031 -53.44625997 670.00085428 -56 668 C-56.84812256 667.34016113 -56.84812256 667.34016113 -57.71337891 666.66699219 C-83.12993122 646.64365325 -107.61600474 618.15198579 -118 587 C-130.59985284 586.78820654 -143.11391002 587.42270138 -155.6875 588.1875 Z " fill="#241F20" transform="translate(647,3)"/>
<path d="M0 0 C18.29551637 15.70931425 27.48942495 35.79790368 29.9921875 59.5390625 C32.59651632 97.10970773 16.04433462 133.71432133 -7.0078125 162.5390625 C-7.81605469 163.55226563 -8.62429688 164.56546875 -9.45703125 165.609375 C-20.3009762 178.92787399 -32.47444671 191.1155918 -46.32080078 201.29638672 C-47.97882799 202.51771211 -49.61657748 203.76284166 -51.25390625 205.01171875 C-88.34536382 232.86892587 -134.58898612 248.06972264 -181.04003906 243.22265625 C-205.55467633 239.56189853 -226.67594756 228.04708058 -241.9453125 208.5390625 C-256.75279463 187.68383584 -261.08892654 162.33101503 -257.1328125 137.30859375 C-252.591103 112.57426198 -242.66039634 89.96143669 -228.0078125 69.5390625 C-227.23388061 68.39226057 -226.46047186 67.24510548 -225.6875 66.09765625 C-213.16841642 48.03292121 -195.93901924 31.20916147 -178.0078125 18.5390625 C-177.4317627 18.12060059 -176.85571289 17.70213867 -176.26220703 17.27099609 C-172.92680681 14.85366186 -169.56831248 12.61789872 -166.0078125 10.5390625 C-165.0075 9.90871094 -164.0071875 9.27835938 -162.9765625 8.62890625 C-116.84096218 -20.2108953 -46.34266577 -37.91672654 0 0 Z " fill="#FEFEFE" transform="translate(395.0078125,128.4609375)"/>
<path d="M0 0 C23.56902155 20.73077614 39.05965017 48.74529474 43 80 C43.92864415 96.95255912 43.56432771 113.57755653 39 130 C38.82871582 130.65387695 38.65743164 131.30775391 38.48095703 131.98144531 C34.17747414 148.07919974 25.67660728 163.28255452 15 176 C13.92298828 177.28583984 13.92298828 177.28583984 12.82421875 178.59765625 C-7.05030399 201.43747191 -36.89710386 219.69869851 -67.7578125 221.89160156 C-81.46539539 222.55429394 -95.55026345 223.07523543 -109 220 C-110.21816406 219.75507812 -111.43632813 219.51015625 -112.69140625 219.2578125 C-143.1661847 212.75064851 -171.5036165 192.56804687 -188.6953125 166.671875 C-207.79171172 136.69327708 -214.52766487 102.75509273 -207.19677734 67.90039062 C-205.27890627 59.47174816 -202.71666476 51.8068179 -199 44 C-198.18015625 42.20369141 -198.18015625 42.20369141 -197.34375 40.37109375 C-193.7056964 32.5919625 -189.35833937 25.70262451 -184 19 C-183.58202148 18.47519043 -183.16404297 17.95038086 -182.73339844 17.40966797 C-161.34800958 -9.23993695 -131.02735321 -26.55333761 -96.99267578 -30.48168945 C-61.61137581 -34.03874453 -27.03361229 -22.93580203 0 0 Z " fill="#FEFEFE" transform="translate(800,414)"/>
<path d="M0 0 C23.56902155 20.73077614 39.05965017 48.74529474 43 80 C43.92864415 96.95255912 43.56432771 113.57755653 39 130 C38.82871582 130.65387695 38.65743164 131.30775391 38.48095703 131.98144531 C34.17747414 148.07919974 25.67660728 163.28255452 15 176 C13.92298828 177.28583984 13.92298828 177.28583984 12.82421875 178.59765625 C-7.05030399 201.43747191 -36.89710386 219.69869851 -67.7578125 221.89160156 C-81.46539539 222.55429394 -95.55026345 223.07523543 -109 220 C-110.21816406 219.75507812 -111.43632813 219.51015625 -112.69140625 219.2578125 C-143.1661847 212.75064851 -171.5036165 192.56804687 -188.6953125 166.671875 C-207.79171172 136.69327708 -214.52766487 102.75509273 -207.19677734 67.90039062 C-205.27890627 59.47174816 -202.71666476 51.8068179 -199 44 C-198.18015625 42.20369141 -198.18015625 42.20369141 -197.34375 40.37109375 C-193.7056964 32.5919625 -189.35833937 25.70262451 -184 19 C-183.58202148 18.47519043 -183.16404297 17.95038086 -182.73339844 17.40966797 C-161.34800958 -9.23993695 -131.02735321 -26.55333761 -96.99267578 -30.48168945 C-61.61137581 -34.03874453 -27.03361229 -22.93580203 0 0 Z M-154 40 C-168.10291278 58.16404402 -174.95135597 81.07744498 -173 104 C-170.18622795 124.22272142 -162.75172388 141.87799758 -149 157 C-148.39929688 157.69351563 -147.79859375 158.38703125 -147.1796875 159.1015625 C-133.95381739 173.47252959 -112.75156802 184.12708951 -93.24511719 185.14355469 C-64.40055469 186.08121185 -41.08038331 179.57411968 -19.58447266 159.55957031 C-3.48556909 143.71368495 5.95146257 122.16891974 6.24145508 99.61230469 C6.31611548 72.4188539 -1.90733535 50.9407426 -20.6875 30.9375 C-37.75715401 14.46561597 -61.74138637 5.07270468 -85.41967773 5.41040039 C-112.51145156 6.63618865 -136.54557086 19.39330711 -154 40 Z " fill="#FDFDFD" transform="translate(800,414)"/>
<path d="M0 0 C0.75872406 -0.00261841 1.51744812 -0.00523682 2.29916382 -0.00793457 C14.23617213 -0.01234839 25.18090538 0.9441417 36.6875 4.3125 C38.31365234 4.71082031 38.31365234 4.71082031 39.97265625 5.1171875 C55.66206031 9.28251601 70.91140453 17.39698635 83.6875 27.3125 C84.6259375 28.03050781 85.564375 28.74851562 86.53125 29.48828125 C115.78780518 52.62232699 134.20988224 86.29524783 138.6875 123.3125 C138.9456637 127.75478836 138.97435095 132.17620068 138.9375 136.625 C138.93073242 137.81125977 138.92396484 138.99751953 138.91699219 140.21972656 C138.53245443 172.86966507 126.87191914 203.46010723 105.6875 228.3125 C104.87539063 229.2715625 104.06328125 230.230625 103.2265625 231.21875 C81.34461751 256.41626494 48.015782 273.64295573 14.6875 276.3125 C1.301797 276.97685184 -12.12611915 276.87083331 -25.3125 274.3125 C-25.97088867 274.18891113 -26.62927734 274.06532227 -27.30761719 273.93798828 C-54.34095285 268.72955719 -77.41083142 255.06398458 -97.3125 236.3125 C-98.21548828 235.48878906 -98.21548828 235.48878906 -99.13671875 234.6484375 C-116.5571951 218.16192609 -128.3756198 194.31791078 -134.3125 171.3125 C-134.76109375 169.70955078 -134.76109375 169.70955078 -135.21875 168.07421875 C-142.9488488 135.32866133 -136.56583565 99.33529169 -120.3125 70.3125 C-119.93609375 69.63944824 -119.5596875 68.96639648 -119.171875 68.27294922 C-113.72361821 58.70444824 -107.50009961 50.5620512 -99.74121094 42.76025391 C-98.40895477 41.4102404 -97.11301597 40.02465272 -95.8203125 38.63671875 C-70.97276341 12.44495799 -35.40913355 0.11654812 0 0 Z M-96.6875 56.25 C-118.80546117 82.54844339 -128.62160516 115.85325132 -126.12939453 149.80712891 C-123.51875384 179.12886833 -110.33235324 205.11500834 -90.3125 226.3125 C-89.20841797 227.53066406 -89.20841797 227.53066406 -88.08203125 228.7734375 C-76.89768961 240.65094604 -63.02242492 248.58841923 -48.3125 255.3125 C-47.01119141 255.92544922 -47.01119141 255.92544922 -45.68359375 256.55078125 C-16.07584607 269.52608861 19.34759089 266.39798171 48.80517578 255.45214844 C79.85667041 243.17463049 104.17787403 217.75904754 117.640625 187.515625 C127.80400706 162.99052922 130.98312687 132.04063871 123.6875 106.3125 C123.49414062 105.61334473 123.30078125 104.91418945 123.1015625 104.19384766 C113.75350299 71.15105397 91.63261905 43.98460788 61.859375 27.10546875 C8.52778034 -1.80933298 -56.996012 10.49348061 -96.6875 56.25 Z " fill="#252122" transform="translate(716.3125,371.6875)"/>
<path d="M0 0 C0.05607422 1.43279297 0.05607422 1.43279297 0.11328125 2.89453125 C0.48516248 10.20819549 1.15230978 16.79676774 3.37890625 23.828125 C4 26 4 26 4 29 C4.66 29 5.32 29 6 29 C6.350625 30.2375 6.70125 31.475 7.0625 32.75 C8.82154386 38.12106112 11.61818232 42.70400985 14.57421875 47.49609375 C16 50 16 50 16 52 C16.66 52 17.32 52 18 52 C19.40234375 53.8984375 19.40234375 53.8984375 20.9375 56.375 C22.86587629 59.48210246 23.89723073 60.93148715 27 63 C27 63.66 27 64.32 27 65 C27.5775 65.226875 28.155 65.45375 28.75 65.6875 C31 67 31 67 32.875 69.375 C35.31912689 72.39421558 37.70277713 73.94701218 41 76 C42.00740234 76.71349609 42.00740234 76.71349609 43.03515625 77.44140625 C48.45062936 81.25229473 53.81133953 83.71143527 60 86 C61.66706429 86.70739702 63.33373254 87.41572809 65 88.125 C69.89363559 90.09798959 74.80315386 91.15965892 80 92 C77.27579226 93.8161385 75.26516836 94.69804969 72.19995117 95.70825195 C71.2243071 96.03231522 70.24866302 96.35637848 69.24345398 96.69026184 C68.18729385 97.03610825 67.13113373 97.38195465 66.04296875 97.73828125 C64.94841873 98.10092575 63.85386871 98.46357025 62.72615051 98.83720398 C59.2146574 99.9998923 55.70120107 101.15650317 52.1875 102.3125 C47.59690007 103.82714548 43.00719338 105.34447424 38.41796875 106.86328125 C37.31242645 107.22865997 36.20688416 107.5940387 35.06784058 107.9704895 C28.34050034 110.20086129 21.66047704 112.52385776 15.00097656 114.94921875 C11.87894269 116.04238779 8.73661359 117.00551135 5.56640625 117.94921875 C0.80523561 119.38457698 -3.84199936 121.02403654 -8.47265625 122.83203125 C-9.09675385 123.07541229 -9.72085144 123.31879333 -10.36386108 123.56954956 C-12.91972563 124.57054876 -15.47322728 125.57706987 -18.0222168 126.59545898 C-19.91867877 127.35077115 -21.82007905 128.09228475 -23.72265625 128.83203125 C-24.83390869 129.27264893 -25.94516113 129.7132666 -27.09008789 130.16723633 C-29.98713162 130.9963173 -31.24475664 131.08912657 -34 130 C-37.85830735 113.08971846 -41.34024228 96.2845831 -43 79 C-43.09571289 78.00387695 -43.19142578 77.00775391 -43.29003906 75.98144531 C-44.11726097 66.09862812 -44.15281134 56.24078394 -44.13037109 46.32910156 C-44.12495664 43.4771608 -44.13037678 40.62537384 -44.13671875 37.7734375 C-44.13605878 35.94270799 -44.13477929 34.11197857 -44.1328125 32.28125 C-44.13483673 31.43743774 -44.13686096 30.59362549 -44.13894653 29.72424316 C-44.12177961 25.3933517 -44.03535657 21.23278126 -43 17 C-41.0390625 15.5390625 -41.0390625 15.5390625 -38.625 14.625 C-37.83351563 14.30789063 -37.04203125 13.99078125 -36.2265625 13.6640625 C-34 13 -34 13 -31 13 C-31 12.34 -31 11.68 -31 11 C-27.06987792 9.4268862 -23.13716168 7.86050167 -19.2019043 6.30029297 C-17.86360574 5.76860679 -16.52603297 5.23508993 -15.18920898 4.69970703 C-13.26734371 3.93039 -11.34296284 3.16769846 -9.41796875 2.40625 C-8.26063232 1.94541016 -7.1032959 1.48457031 -5.91088867 1.00976562 C-3 0 -3 0 0 0 Z " fill="#363638" transform="translate(58,555)"/>
<path d="M0 0 C2.63240282 2.4333712 5.16459339 4.94644551 7.68554688 7.49560547 C8.34941406 8.14916016 9.01328125 8.80271484 9.69726562 9.47607422 C28.31266059 29.13288988 34.30548255 54.55999573 33.96679688 80.83544922 C33.28715323 101.00387446 24.62731892 121.22007126 11.68554688 136.49560547 C10.99460937 137.32060547 10.30367187 138.14560547 9.59179688 138.99560547 C-6.00312209 157.00663864 -29.30084295 169.70524163 -53.31445312 171.49560547 C-80.09298531 172.93027689 -106.0796913 167.23785863 -126.57836914 149.04174805 C-129.22749366 146.59435118 -131.78261034 144.06345029 -134.31445312 141.49560547 C-135.06339844 140.75697266 -135.81234375 140.01833984 -136.58398438 139.25732422 C-146.00152934 129.39397831 -151.89178234 117.24852766 -156.31445312 104.49560547 C-156.80546509 103.34016235 -156.80546509 103.34016235 -157.30639648 102.16137695 C-165.05565837 81.66871759 -161.87957254 54.88190018 -153.27246094 35.17431641 C-141.6828855 9.96970691 -121.82499288 -7.90746442 -96.16162109 -17.82910156 C-91.61587109 -19.4909499 -87.06927391 -20.63043647 -82.31445312 -21.50439453 C-81.1671875 -21.71966797 -80.01992188 -21.93494141 -78.83789062 -22.15673828 C-51.15319701 -26.61543104 -21.09288885 -18.74461064 0 0 Z M-134.31445312 18.49560547 C-148.4173659 36.65964949 -155.26580909 59.57305045 -153.31445312 82.49560547 C-150.50068108 102.71832689 -143.06617701 120.37360305 -129.31445312 135.49560547 C-128.71375 136.18912109 -128.11304688 136.88263672 -127.49414062 137.59716797 C-114.26827052 151.96813506 -93.06602114 162.62269498 -73.55957031 163.63916016 C-44.71500781 164.57681732 -21.39483643 158.06972515 0.10107422 138.05517578 C16.19997779 122.20929042 25.63700944 100.66452521 25.92700195 78.10791016 C26.00166235 50.91445937 17.77821153 29.43634807 -1.00195312 9.43310547 C-18.07160714 -7.03877856 -42.0558395 -16.43168985 -65.73413086 -16.09399414 C-92.82590469 -14.86820588 -116.86002398 -2.11108742 -134.31445312 18.49560547 Z " fill="#292526" transform="translate(780.314453125,435.50439453125)"/>
<path d="M0 0 C0.66 0.33 1.32 0.66 2 1 C-0.64 4.3 -3.28 7.6 -6 11 C-6.66 10.34 -7.32 9.68 -8 9 C-5.36 6.03 -2.72 3.06 0 0 Z " fill="#DF4A42" transform="translate(173,188)"/>
</svg>
